# Blender v2.80 (sub 75) OBJ File: ''
# www.blender.org
mtllib Rock3_low.mtl
o Rock3_low
v 0.865010 -0.183029 4.259521
v 0.616760 -0.006167 4.201047
v 0.671304 -0.236634 4.232222
v 0.515378 -0.253056 4.181814
v 0.783556 -0.221259 4.252637
v 0.706971 -0.232560 4.239199
v 0.694845 -0.234157 4.237067
v 0.875638 -0.220772 3.483875
v 0.974326 -0.213459 3.517551
v 0.977192 -0.220958 3.510482
v 0.972324 -0.221232 3.663708
v 1.000631 -0.269966 3.225716
v 0.970105 0.259938 3.957200
v 0.954217 -0.070745 4.193550
v 1.013371 0.027708 4.005683
v 0.939139 -0.215077 3.980461
v 0.683073 -0.235882 3.960193
v 0.204522 0.487593 3.631241
v 0.187359 0.092872 3.891868
v 0.216575 0.135274 4.004291
v 0.978723 0.275303 3.499164
v 1.026706 0.028951 3.726328
v 1.005193 0.108335 3.219762
v 0.252357 0.592390 3.422691
v 0.174312 0.197299 3.349186
v 0.869543 0.297064 4.079316
v 0.834352 0.127878 4.185992
v 0.630188 0.577434 3.273618
v 0.852684 0.565656 3.346498
v 0.849363 0.501916 3.236012
v 0.834476 -0.107464 3.068416
v 0.917421 -0.230423 3.072127
v 0.608189 -0.254008 3.025960
v 0.969454 0.209714 3.189118
v 0.253807 0.330416 3.943108
v 0.337035 0.700188 3.889264
v 0.490298 0.792245 3.860183
v 0.827176 0.720648 3.737648
v 0.401557 0.757683 3.554027
v 0.271751 -0.217361 4.073627
v 0.432791 -0.086159 4.142626
v 0.584556 0.150497 4.170389
v 0.338169 0.242283 4.062335
v 0.525865 -0.025257 4.180243
v 0.739423 0.718157 3.932667
v 0.681042 0.450262 4.063406
v 1.038080 -0.044935 3.163339
v 0.981253 0.053331 3.152028
v 1.044422 -0.197014 3.100573
v 0.538249 -0.239169 3.229264
v 0.895568 -0.299428 3.161864
v 0.201639 -0.013906 3.234358
v 0.507723 0.264666 3.116337
v 0.497346 -0.043069 3.088731
v 0.228536 -0.172147 3.748205
v 0.241794 -0.129372 3.326206
v 0.311865 -0.219546 3.356699
v 0.259171 -0.216531 3.634067
v 0.926621 0.394780 3.494837
v 1.013186 0.002375 3.842349
v 0.998963 -0.031304 3.755919
v 0.999597 -0.042029 3.534936
v 0.360157 -0.034557 4.110798
v 0.293377 0.156678 4.033598
v 0.882281 0.560887 3.869353
v 0.639816 -0.182744 3.606365
v 0.496674 -0.247284 3.944913
v 0.268617 -0.227177 3.756645
v 0.297539 0.752319 3.633631
v 0.524599 0.710393 3.961462
v 0.281702 0.436589 3.295629
v 0.589107 0.495898 3.189570
v 0.465677 0.455146 3.196064
v 0.500676 0.693829 3.406000
v 0.881820 0.350996 3.172472
v 0.747450 0.112392 4.188337
v 0.710122 0.272305 4.131325
v 0.159333 0.151895 3.627252
v 0.948065 -0.203679 4.166184
v 1.004581 0.058146 3.182310
v 1.008519 0.009654 3.347081
v 0.329968 0.352844 4.005429
v 0.543746 0.413392 4.065080
v 0.634167 0.272742 3.099084
v 0.779132 0.323265 3.125404
v 0.551269 0.555111 4.026917
v 0.620486 0.547114 4.011371
v 0.833012 -0.220812 3.826698
v 0.965236 0.380719 3.729673
v 0.991811 0.205782 3.734469
v 0.973703 0.259639 3.824606
v 0.925646 0.422365 3.879980
v 1.013756 -0.054118 3.675708
v 0.844035 0.661658 3.560382
v 0.656165 0.426351 4.058286
v 0.581387 -0.030976 4.188716
v 0.649657 0.092145 4.177282
v 0.426499 0.713258 3.955116
v 0.993430 0.209827 3.847782
v 0.288449 -0.195212 3.189393
vt 0.747926 0.483644
vt 0.838339 0.386487
vt 0.831605 0.491154
vt 0.898482 0.482494
vt 0.784027 0.493993
vt 0.816522 0.492458
vt 0.821653 0.492133
vt 0.609989 0.531452
vt 0.604888 0.531027
vt 0.528576 0.514145
vt 0.594968 0.529874
vt 0.642218 0.534093
vt 0.372914 0.563031
vt 0.369181 0.516796
vt 0.372914 0.516412
vt 0.651465 0.190915
vt 0.694329 0.198691
vt 0.698044 0.266568
vt 0.391168 0.266735
vt 0.386424 0.334639
vt 0.383417 0.331220
vt 0.692702 0.073263
vt 0.693511 0.201731
vt 0.203766 0.121157
vt 0.345594 0.026997
vt 0.302793 0.107924
vt 0.696279 0.407616
vt 0.589665 0.409239
vt 0.182529 0.625536
vt 0.075876 0.797077
vt 0.028766 0.780606
vt 0.183291 0.323572
vt 0.294102 0.231770
vt 0.244131 0.453108
vt 0.267813 0.583232
vt 0.300451 0.750593
vt 0.707050 0.433736
vt 0.720204 0.259160
vt 0.741301 0.341341
vt 0.877380 0.841177
vt 0.969400 0.809077
vt 0.969400 0.863107
vt 0.626305 0.938757
vt 0.647226 1.000000
vt 0.519247 0.976297
vt 0.199608 0.462810
vt 0.074616 0.430637
vt 0.053017 0.697886
vt 0.073062 0.542050
vt 0.814092 0.567267
vt 0.955068 0.624808
vt 0.778972 0.704004
vt 0.000000 0.939109
vt 0.921646 0.402063
vt 0.841441 0.314510
vt 0.939944 0.247588
vt 0.877576 0.386491
vt 0.749506 0.055360
vt 0.785979 0.180776
vt 0.398695 0.462674
vt 0.306904 0.483589
vt 0.706598 0.882124
vt 0.702864 0.998995
vt 0.502597 0.092155
vt 0.646606 0.049941
vt 0.398695 0.808805
vt 0.537720 0.739219
vt 0.501168 0.869194
vt 0.135289 0.916256
vt 0.309629 0.898664
vt 0.296074 0.943306
vt 0.182132 0.937998
vt 0.186604 0.064273
vt 0.052301 0.379709
vt 0.131254 0.320773
vt 0.307895 0.181052
vt 0.396869 0.125774
vt 0.318053 0.220179
vt 0.315383 0.318368
vt 0.948878 0.371945
vt 1.000000 0.278494
vt 1.000000 0.439478
vt 0.973795 0.190867
vt 0.965847 0.277654
vt 0.000000 0.201106
vt 0.002124 0.113439
vt 0.072769 0.148869
vt 0.918099 0.541093
vt 0.402956 0.281305
vt 0.559314 0.253275
vt 0.512088 0.410091
vt 0.411289 0.335353
vt 0.735720 0.670742
vt 0.751976 0.564552
vt 0.848560 0.000000
vt 0.835423 0.048839
vt 0.424556 0.474984
vt 0.479436 0.624633
vt 0.598327 0.646035
vt 0.546104 0.647591
vt 0.599810 0.534093
vt 0.698258 0.743661
vt 0.523640 0.000000
vt 0.653179 0.007661
vt 0.367429 0.516412
vt 0.777450 0.342823
vt 0.783761 0.266015
vt 0.185716 0.769268
vt 0.348029 0.845168
vt 0.720235 0.777830
vt 0.821507 0.773586
vt 0.320290 0.653691
vt 0.388372 0.000000
vt 0.398695 0.043327
vt 0.179389 0.516412
vt 0.263409 0.471307
vt 0.288751 0.399999
vt 0.707050 0.489004
vt 0.676567 0.532951
vt 0.720235 0.929215
vt 0.938101 0.193487
vt 0.915771 0.033001
vt 0.844109 0.188127
vt 0.705268 0.671135
vt 0.629132 0.609750
vt 0.587075 0.752626
vt 0.651322 0.746811
vt 0.832640 0.124034
vt 0.806056 0.129834
vt 0.136175 0.464186
vt 0.646699 0.344009
vt 0.146806 0.217887
vt 0.493115 0.545064
vt 0.220030 0.221868
vt 0.199844 0.179924
vt 0.132281 0.149357
vt 0.707050 0.014382
vt 0.325674 0.256667
vt 0.963582 0.707205
vt 0.019415 0.281768
vt 0.798062 0.188759
vt 0.855108 0.393343
vt 0.131269 0.943306
vt 0.819052 0.344053
vt 0.875204 0.040824
vt 0.788573 0.534093
vt 0.222108 0.171598
vt 0.414278 0.156807
vt 0.411595 0.899075
vt 0.365646 0.589449
vt 0.369181 0.516412
vt 0.369181 0.609033
vt 0.398695 0.083196
vt 0.365646 0.930992
vt 0.720235 0.812053
vt 0.861933 0.885714
vt 0.263036 0.484494
vt 0.718644 0.880373
vn 0.0768 0.1128 0.9906
vn -0.2135 0.1262 0.9688
vn -0.2299 0.0796 0.9700
vn -0.1205 -0.9329 0.3395
vn 0.1305 -0.9866 0.0983
vn 0.1831 -0.9488 -0.2574
vn 0.1266 -0.9896 -0.0691
vn -0.0717 -0.9882 0.1352
vn 0.9508 -0.2969 0.0883
vn 0.0913 -0.9945 -0.0516
vn 0.5686 -0.8212 0.0477
vn 0.7445 -0.6470 0.1646
vn 0.8705 0.3157 0.3776
vn 0.7574 0.2316 0.6105
vn 0.9903 -0.0391 0.1331
vn 0.5580 -0.8290 0.0386
vn 0.0522 -0.9952 -0.0823
vn -0.9688 0.2229 0.1087
vn -0.9892 -0.0478 0.1383
vn -0.8536 0.1525 0.4981
vn 0.9542 0.2953 -0.0490
vn 0.9984 0.0568 -0.0019
vn 0.9825 0.1810 -0.0438
vn -0.7205 0.5183 -0.4607
vn -0.9663 0.1471 -0.2112
vn 0.6779 0.3890 0.6238
vn 0.2536 0.3600 0.8978
vn 0.1450 0.7905 -0.5950
vn 0.6587 0.6744 -0.3335
vn 0.6876 0.5443 -0.4806
vn 0.2037 0.1540 -0.9668
vn 0.2037 -0.3753 -0.9042
vn -0.1426 -0.3696 -0.9182
vn 0.9002 0.3630 -0.2404
vn -0.8592 0.2658 0.4373
vn -0.8214 0.4093 0.3972
vn 0.0015 0.9949 0.1005
vn 0.4663 0.8799 -0.0914
vn 0.0018 0.9592 -0.2829
vn -0.7967 -0.4015 0.4517
vn -0.3692 0.0200 0.9292
vn -0.2019 0.2592 0.9445
vn -0.4101 0.2338 0.8816
vn -0.3455 0.1203 0.9307
vn 0.3868 0.6000 0.7002
vn 0.0323 0.4005 0.9157
vn 0.9970 -0.0326 0.0704
vn 0.3870 0.2280 -0.8934
vn 0.6001 -0.1135 -0.7918
vn -0.0675 -0.9927 0.1000
vn -0.0083 -0.9999 0.0059
vn -0.8352 -0.0306 -0.5491
vn -0.3990 0.1932 -0.8964
vn -0.3720 0.0776 -0.9250
vn -0.9635 -0.2669 0.0184
vn -0.8731 -0.4807 -0.0810
vn -0.3661 -0.9280 -0.0686
vn -0.1459 -0.9890 0.0240
vn 0.9506 0.2911 -0.1079
vn 0.9968 -0.0765 0.0230
vn 0.9729 -0.2248 0.0542
vn 0.9912 -0.1276 0.0358
vn -0.4645 0.0999 0.8799
vn -0.5623 0.2043 0.8013
vn 0.8280 0.4185 0.3732
vn 0.0102 -0.9999 -0.0124
vn 0.0350 -0.9929 -0.1137
vn -0.1041 -0.9924 -0.0662
vn -0.7413 0.6708 0.0204
vn 0.0745 0.5462 0.8344
vn -0.6008 0.2650 -0.7542
vn -0.0341 0.5242 -0.8509
vn -0.3474 0.5304 -0.7733
vn 0.0251 0.8649 -0.5014
vn 0.4035 0.2321 -0.8851
vn -0.0814 0.2432 0.9666
vn -0.0518 0.3405 0.9388
vn -0.9980 -0.0605 0.0158
vn 0.8239 -0.5256 0.2121
vn 0.9884 0.1051 -0.1100
vn 0.9997 0.0146 0.0183
vn -0.4511 0.2713 0.8503
vn -0.2040 0.3411 0.9176
vn -0.0180 0.1803 -0.9834
vn 0.1864 0.2972 -0.9364
vn -0.1615 0.2783 0.9468
vn 0.0742 0.3910 0.9174
vn -0.0437 -0.9982 -0.0404
vn 0.9521 0.3043 -0.0308
vn 0.9776 0.2097 0.0192
vn 0.9750 0.2125 0.0647
vn 0.9545 0.2713 0.1236
vn 0.9846 -0.1657 0.0550
vn 0.6526 0.7181 -0.2420
vn -0.0267 0.3519 0.9357
vn -0.1353 0.0884 0.9869
vn -0.0881 0.2400 0.9668
vn -0.3539 0.3748 0.8569
vn 0.9861 0.1663 -0.0030
vn -0.5507 -0.5743 -0.6057
usemtl PolySphere2_4SG
s 1
f 1/1/1 2/2/2 3/3/3
f 2/2/2 4/4/4 3/3/3
f 5/5/5 3/3/3 6/6/6
f 6/6/6 3/3/3 7/7/7
f 6/8/6 7/9/7 4/10/4
f 7/9/7 3/11/3 4/10/4
f 5/12/5 6/8/6 4/10/4
f 8/13/8 9/14/9 10/15/10
f 8/16/8 10/17/10 11/18/11
f 11/19/11 10/20/10 9/21/9
f 8/16/8 12/22/12 9/23/9
f 13/24/13 14/25/14 15/26/15
f 16/27/16 4/10/4 17/28/17
f 18/29/18 19/30/19 20/31/20
f 21/32/21 22/33/22 23/34/23
f 24/35/24 25/36/25 18/29/18
f 14/37/14 26/38/26 27/39/27
f 28/40/28 29/41/29 30/42/30
f 31/43/31 32/44/32 33/45/33
f 34/46/34 30/47/30 21/32/21
f 35/48/35 36/49/36 18/29/18
f 37/50/37 38/51/38 39/52/39
f 20/31/20 19/30/19 40/53/40
f 2/2/2 41/54/41 4/4/4
f 42/55/42 43/56/43 44/57/44
f 45/58/45 46/59/46 27/39/27
f 9/21/9 12/60/12 47/61/47
f 48/62/48 49/63/49 31/43/31
f 50/64/50 51/65/51 8/16/8
f 52/66/52 53/67/53 54/68/54
f 40/53/40 19/30/19 55/69/55
f 56/70/56 57/71/57 58/72/58
f 14/25/14 13/24/13 26/73/26
f 30/47/30 29/74/29 59/75/59
f 60/76/60 16/77/16 61/78/61
f 22/33/22 61/78/61 62/79/62
f 63/80/63 20/81/20 40/82/40
f 35/83/35 64/84/64 43/56/43
f 38/85/38 45/86/45 65/87/65
f 38/51/38 37/50/37 45/88/45
f 58/89/58 50/64/50 66/90/66
f 67/91/67 4/10/4 68/92/68
f 69/93/69 36/94/36 37/50/37
f 45/58/45 37/95/37 70/96/70
f 68/92/68 4/10/4 40/97/40
f 4/4/4 41/54/41 40/82/40
f 52/66/52 71/98/71 53/67/53
f 72/99/72 73/100/73 74/101/74
f 72/99/72 53/67/53 73/100/73
f 48/62/48 31/43/31 75/102/75
f 33/103/33 32/104/32 51/65/51
f 47/61/47 12/60/12 49/105/49
f 27/39/27 76/106/76 1/1/1
f 27/39/27 46/59/46 77/107/77
f 25/36/25 78/108/78 18/29/18
f 55/69/55 78/108/78 52/109/52
f 24/110/24 39/52/39 74/111/74
f 38/51/38 74/111/74 39/52/39
f 4/10/4 16/27/16 5/12/5
f 27/39/27 1/1/1 14/37/14
f 52/109/52 78/108/78 25/36/25
f 52/109/52 25/36/25 71/112/71
f 14/25/14 1/113/1 79/114/79
f 15/26/15 14/25/14 79/114/79
f 24/35/24 18/29/18 69/115/69
f 18/29/18 36/49/36 69/115/69
f 80/116/80 22/33/22 81/117/81
f 62/79/62 9/21/9 47/61/47
f 1/1/1 3/3/3 5/5/5
f 5/12/5 79/118/79 1/119/1
f 48/62/48 47/120/47 49/63/49
f 80/116/80 81/117/81 47/61/47
f 35/83/35 82/121/82 36/122/36
f 43/56/43 42/55/42 83/123/83
f 30/124/30 72/99/72 28/125/28
f 84/126/84 72/99/72 85/127/85
f 86/128/86 82/121/82 83/123/83
f 45/58/45 70/96/70 87/129/87
f 85/127/85 72/99/72 30/124/30
f 34/46/34 75/130/75 30/47/30
f 66/90/66 50/64/50 8/16/8
f 8/16/8 11/18/11 88/131/88
f 18/29/18 20/31/20 35/48/35
f 35/83/35 20/81/20 64/84/64
f 13/24/13 65/87/65 26/73/26
f 89/132/89 38/85/38 65/87/65
f 66/90/66 67/91/67 68/92/68
f 66/90/66 8/16/8 88/131/88
f 71/112/71 25/36/25 24/35/24
f 74/101/74 73/100/73 24/133/24
f 90/134/90 91/135/91 60/76/60
f 89/132/89 92/136/92 91/135/91
f 49/137/49 12/22/12 51/65/51
f 51/65/51 12/22/12 8/16/8
f 65/87/65 45/86/45 26/73/26
f 26/38/26 45/58/45 27/39/27
f 33/45/33 84/126/84 31/43/31
f 85/127/85 31/43/31 84/126/84
f 9/21/9 62/79/62 93/138/93
f 93/138/93 11/19/11 9/21/9
f 74/111/74 38/51/38 94/139/94
f 89/132/89 94/140/94 38/85/38
f 82/121/82 43/56/43 83/123/83
f 82/121/82 35/83/35 43/56/43
f 16/27/16 79/118/79 5/12/5
f 15/26/15 79/114/79 16/77/16
f 51/65/51 32/104/32 49/137/49
f 49/63/49 32/44/32 31/43/31
f 83/123/83 95/141/95 86/128/86
f 77/107/77 95/141/95 83/123/83
f 73/100/73 71/98/71 24/133/24
f 53/67/53 71/98/71 73/100/73
f 29/74/29 89/132/89 59/75/59
f 89/132/89 91/135/91 90/134/90
f 19/30/19 18/29/18 78/108/78
f 19/30/19 78/108/78 55/69/55
f 42/55/42 44/57/44 96/142/96
f 1/1/1 76/106/76 2/2/2
f 89/132/89 90/134/90 59/75/59
f 21/32/21 30/47/30 59/75/59
f 39/52/39 24/110/24 69/93/69
f 69/93/69 37/50/37 39/52/39
f 68/143/68 40/53/40 55/69/55
f 56/70/56 58/72/58 55/69/55
f 59/75/59 90/134/90 21/32/21
f 90/134/90 22/33/22 21/32/21
f 77/107/77 42/55/42 97/144/97
f 42/55/42 77/107/77 83/123/83
f 85/127/85 75/102/75 31/43/31
f 30/124/30 75/102/75 85/127/85
f 58/89/58 66/90/66 68/92/68
f 58/72/58 68/143/68 55/69/55
f 16/77/16 93/138/93 61/78/61
f 61/78/61 93/138/93 62/79/62
f 82/121/82 98/145/98 36/122/36
f 36/94/36 98/146/98 37/50/37
f 29/41/29 74/111/74 94/139/94
f 89/132/89 29/74/29 94/140/94
f 60/76/60 15/26/15 16/77/16
f 60/76/60 99/147/99 15/26/15
f 58/89/58 57/148/57 50/64/50
f 100/149/100 52/66/52 54/68/54
f 96/150/96 41/151/41 2/152/2
f 76/106/76 97/144/97 2/2/2
f 46/59/46 95/141/95 77/107/77
f 45/58/45 87/129/87 46/59/46
f 50/64/50 33/103/33 51/65/51
f 50/64/50 100/153/100 33/103/33
f 44/57/44 41/54/41 96/142/96
f 41/54/41 63/80/63 40/82/40
f 46/59/46 87/129/87 95/141/95
f 95/141/95 87/129/87 86/128/86
f 54/68/54 53/67/53 84/126/84
f 72/99/72 84/126/84 53/67/53
f 60/76/60 61/78/61 22/33/22
f 90/134/90 60/76/60 22/33/22
f 43/56/43 63/80/63 44/57/44
f 44/57/44 63/80/63 41/54/41
f 56/70/56 100/154/100 57/71/57
f 57/148/57 100/153/100 50/64/50
f 17/28/17 88/131/88 16/27/16
f 66/90/66 88/131/88 17/28/17
f 80/116/80 23/34/23 22/33/22
f 75/102/75 34/155/34 48/62/48
f 87/129/87 70/96/70 86/128/86
f 86/128/86 98/145/98 82/121/82
f 52/109/52 100/154/100 56/70/56
f 55/69/55 52/109/52 56/70/56
f 99/147/99 13/24/13 15/26/15
f 91/135/91 92/136/92 13/24/13
f 81/117/81 62/79/62 47/61/47
f 22/33/22 62/79/62 81/117/81
f 72/156/72 74/111/74 28/40/28
f 29/41/29 28/40/28 74/111/74
f 34/46/34 80/116/80 48/157/48
f 80/158/80 47/120/47 48/62/48
f 97/144/97 42/55/42 96/142/96
f 97/144/97 96/142/96 2/2/2
f 66/90/66 17/28/17 67/91/67
f 67/91/67 17/28/17 4/10/4
f 91/135/91 13/24/13 99/147/99
f 91/135/91 99/147/99 60/76/60
f 37/95/37 98/145/98 70/96/70
f 86/128/86 70/96/70 98/145/98
f 54/68/54 33/45/33 100/149/100
f 54/68/54 84/126/84 33/45/33
f 23/34/23 34/46/34 21/32/21
f 23/34/23 80/116/80 34/46/34
f 88/131/88 11/18/11 16/27/16
f 93/138/93 16/77/16 11/19/11
f 43/56/43 64/84/64 63/80/63
f 64/84/64 20/81/20 63/80/63
f 77/107/77 97/144/97 76/106/76
f 27/39/27 77/107/77 76/106/76
f 65/87/65 13/24/13 92/136/92
f 65/87/65 92/136/92 89/132/89
